<svg xmlns="http://www.w3.org/2000/svg" viewBox="0 0 403 404" enable-background="new 0 0 403 404">
    <path fill="#fff" stroke="#000" stroke-miterlimit="10" d="M363.5 389.7H39.2c-14.6 0-26.5-11.9-26.5-26.5V38.8c0-14.6 11.9-26.5 26.5-26.5h324.3c14.6 0 26.5 11.9 26.5 26.5v324.3c0 14.7-11.9 26.6-26.5 26.6zM350.1 338.3H53.5"/>
    <g fill="none" stroke="#A3A3A3" stroke-miterlimit="10">
        <path d="M83.2 338.3v-.5"/>
        <path stroke-dasharray="1.0018,1.0018" d="M83.2 336.8v-294"/>
        <path d="M83.2 42.3v-.5"/>
        <path d="M112.8 338.3v-.5"/>
        <path stroke-dasharray="1.0018,1.0018" d="M112.8 336.8v-294"/>
        <path d="M112.8 42.3v-.5"/>
        <path d="M142.5 338.3v-.5"/>
        <path stroke-dasharray="1.0018,1.0018" d="M142.5 336.8v-294"/>
        <path d="M142.5 42.3v-.5"/>
        <path d="M172.1 338.3v-.5"/>
        <path stroke-dasharray="1.0018,1.0018" d="M172.1 336.8v-294"/>
        <path d="M172.1 42.3v-.5"/>
        <path d="M201.8 338.3v-.5"/>
        <path stroke-dasharray="1.0018,1.0018" d="M201.8 336.8v-294"/>
        <path d="M201.8 42.3v-.5"/>
        <path d="M231.4 338.3v-.5"/>
        <path stroke-dasharray="1.0018,1.0018" d="M231.4 336.8v-294"/>
        <path d="M231.4 42.3v-.5"/>
        <path d="M261.1 338.3v-.5"/>
        <path stroke-dasharray="1.0018,1.0018" d="M261.1 336.8v-294"/>
        <path d="M261.1 42.3v-.5"/>
        <path d="M290.8 338.3v-.5"/>
        <path stroke-dasharray="1.0018,1.0018" d="M290.8 336.8v-294"/>
        <path d="M290.8 42.3v-.5"/>
        <path d="M320.4 338.3v-.5"/>
        <path stroke-dasharray="1.0018,1.0018" d="M320.4 336.8v-294"/>
        <path d="M320.4 42.3v-.5"/>
        <path d="M350.1 338.3v-.5"/>
        <path stroke-dasharray="1.0018,1.0018" d="M350.1 336.8v-294"/>
        <path d="M350.1 42.3v-.5"/>
        <path d="M53.5 71.5h.5"/>
        <path stroke-dasharray="1.0018,1.0018" d="M55 71.5h294.1"/>
        <path d="M349.6 71.5h.5"/>
        <path d="M53.5 101.1h.5"/>
        <path stroke-dasharray="1.0018,1.0018" d="M55 101.1h294.1"/>
        <path d="M349.6 101.1h.5"/>
        <path d="M53.5 41.8h.5"/>
        <path stroke-dasharray="1.0018,1.0018" d="M55 41.8h294.1"/>
        <path d="M349.6 41.8h.5"/>
        <path d="M53.5 130.8h.5"/>
        <path stroke-dasharray="1.0018,1.0018" d="M55 130.8h294.1"/>
        <path d="M349.6 130.8h.5"/>
        <path d="M53.5 160.4h.5"/>
        <path stroke-dasharray="1.0018,1.0018" d="M55 160.4h294.1"/>
        <path d="M349.6 160.4h.5"/>
        <path d="M53.5 190.1h.5"/>
        <path stroke-dasharray="1.0018,1.0018" d="M55 190.1h294.1"/>
        <path d="M349.6 190.1h.5"/>
        <path d="M53.5 219.7h.5"/>
        <path stroke-dasharray="1.0018,1.0018" d="M55 219.7h294.1"/>
        <path d="M349.6 219.7h.5"/>
        <path d="M53.5 249.4h.5"/>
        <path stroke-dasharray="1.0018,1.0018" d="M55 249.4h294.1"/>
        <path d="M349.6 249.4h.5"/>
        <path d="M53.5 279h.5"/>
        <path stroke-dasharray="1.0018,1.0018" d="M55 279h294.1"/>
        <path d="M349.6 279h.5"/>
        <path d="M53.5 308.7h.5"/>
        <path stroke-dasharray="1.0018,1.0018" d="M55 308.7h294.1"/>
        <path d="M349.6 308.7h.5"/>
    </g>
    <g>
        <text transform="translate(248.333 35)" font-family="'Helvetica'" font-size="12">
            Post-test Probability
        </text>
        <text transform="translate(265.333 374)" font-family="'Helvetica'" font-size="12">
            negative (-)
        </text>
        <text transform="translate(36.334 41.822)" font-family="'Helvetica'" font-size="10.982">
            1.0
        </text>
        <text transform="translate(36.334 101.126)" font-family="'Helvetica'" font-size="10.982">
            0.8
        </text>
        <text transform="translate(36.334 160.43)" font-family="'Helvetica'" font-size="10.982">
            0.6
        </text>
        <text transform="translate(36.334 219.733)" font-family="'Helvetica'" font-size="10.982">
            0.4
        </text>
        <text transform="translate(36.334 279.037)" font-family="'Helvetica'" font-size="10.982">
            0.2
        </text>
        <text transform="translate(105.888 350.421)" font-family="'Helvetica'" font-size="10.982">
            0.2
        </text>
        <text transform="translate(165.191 350.421)" font-family="'Helvetica'" font-size="10.982">
            0.4
        </text>
        <text transform="translate(224.495 350.421)" font-family="'Helvetica'" font-size="10.982">
            0.6
        </text>
        <text transform="translate(283.799 350.421)" font-family="'Helvetica'" font-size="10.982">
            0.8
        </text>
        <text transform="translate(343.103 350.421)" font-family="'Helvetica'" font-size="10.982">
            1.0
        </text>
        <text transform="translate(36.334 350.421)" font-family="'Helvetica'" font-size="10.982">
            0.0
        </text>
        <text transform="translate(172.333 374)" font-family="'Helvetica'" font-size="12">
            positive (+)
        </text>
    </g>
    <path fill="none" stroke="#00f" stroke-width="2" stroke-miterlimit="10" d="M233 371h24"/>
    <path fill="none" stroke="#f00" stroke-width="2" stroke-miterlimit="10" d="M326 371h24"/>
    <g transform="translate(53.5, 42)">
        <rect x="0" y="0" width="297" height="296" stroke="black" fill="transparent" stroke-width="1"/>
        <path fill="none" stroke="#f00" stroke-width="2" stroke-miterlimit="10" d="M0,296 L0.297,296 L0.594,296 L0.891,296 L1.188,296 L1.485,296 L1.782,296 L2.079,296 L2.376,296 L2.6730000000000005,296 L2.9700000000000006,296 L3.267000000000001,296 L3.564000000000001,296 L3.8610000000000015,296 L4.158000000000001,296 L4.455000000000002,296 L4.7520000000000024,296 L5.049000000000002,296 L5.346000000000003,296 L5.643000000000003,296 L5.940000000000003,296 L6.237000000000004,296 L6.534000000000003,296 L6.831000000000004,296 L7.1280000000000046,296 L7.425000000000004,296 L7.722000000000005,296 L8.019000000000005,296 L8.316000000000006,296 L8.613000000000005,296 L8.910000000000005,296 L9.207000000000006,296 L9.504000000000007,296 L9.801000000000007,296 L10.098000000000006,296 L10.395000000000007,296 L10.692000000000007,296 L10.989000000000008,296 L11.286000000000008,296 L11.583000000000009,296 L11.880000000000008,296 L12.177000000000008,296 L12.474000000000009,296 L12.77100000000001,296 L13.06800000000001,296 L13.365000000000009,296 L13.66200000000001,296 L13.95900000000001,296 L14.25600000000001,296 L14.553000000000011,296 L14.85000000000001,296 L15.147000000000011,296 L15.444000000000011,296 L15.741000000000012,296 L16.03800000000001,296 L16.33500000000001,296 L16.632000000000012,296 L16.929000000000013,296 L17.226000000000013,296 L17.523000000000014,296 L17.820000000000014,296 L18.117000000000015,296 L18.414000000000016,296 L18.711000000000013,296 L19.008000000000013,296 L19.305000000000014,296 L19.602000000000015,296 L19.899000000000015,296 L20.196000000000012,296 L20.493000000000013,296 L20.790000000000013,296 L21.087000000000014,296 L21.384000000000015,296 L21.681000000000015,296 L21.978000000000016,296 L22.275000000000016,296 L22.572000000000017,296 L22.869000000000018,296 L23.166000000000018,296 L23.463000000000015,296 L23.760000000000016,296 L24.057000000000016,296 L24.354000000000017,296 L24.651000000000018,296 L24.948000000000018,296 L25.24500000000002,296 L25.54200000000002,296 L25.83900000000002,296 L26.13600000000002,296 L26.433000000000018,296 L26.730000000000018,296 L27.02700000000002,296 L27.32400000000002,296 L27.62100000000002,296 L27.91800000000002,296 L28.21500000000002,296 L28.51200000000002,296 L28.809000000000022,296 L29.106000000000023,296 L29.403000000000024,296 L29.70000000000002,296 L29.99700000000002,296 L30.294000000000022,296 L30.591000000000022,296 L30.888000000000023,296 L31.185000000000024,296 L31.482000000000024,296 L31.779000000000025,296 L32.07600000000002,296 L32.373000000000026,296 L32.67000000000002,296 L32.96700000000003,296 L33.264000000000024,296 L33.56100000000003,296 L33.858000000000025,296 L34.15500000000003,296 L34.45200000000003,296 L34.749000000000024,296 L35.04600000000003,296 L35.343000000000025,296 L35.64000000000003,296 L35.937000000000026,296 L36.23400000000003,296 L36.53100000000003,296 L36.82800000000003,296 L37.12500000000002,296 L37.422000000000025,296 L37.71900000000002,296 L38.01600000000003,296 L38.313000000000024,296 L38.61000000000003,296 L38.907000000000025,296 L39.20400000000003,296 L39.501000000000026,296 L39.79800000000003,296 L40.09500000000003,296 L40.392000000000024,296 L40.68900000000003,296 L40.986000000000026,296 L41.28300000000003,296 L41.58000000000003,296 L41.87700000000003,296 L42.17400000000003,296 L42.47100000000003,296 L42.76800000000003,296 L43.06500000000003,296 L43.36200000000003,296 L43.65900000000003,296 L43.95600000000003,296 L44.25300000000003,296 L44.55000000000003,296 L44.84700000000003,296 L45.144000000000034,296 L45.44100000000003,296 L45.738000000000035,296 L46.03500000000003,296 L46.332000000000036,296 L46.62900000000003,296 L46.92600000000003,296 L47.223000000000035,296 L47.52000000000003,296 L47.817000000000036,296 L48.11400000000003,296 L48.41100000000004,296 L48.708000000000034,296 L49.00500000000004,296 L49.302000000000035,296 L49.59900000000004,296 L49.896000000000036,296 L50.19300000000003,296 L50.49000000000004,296 L50.787000000000035,296 L51.08400000000004,296 L51.381000000000036,296 L51.67800000000004,296 L51.97500000000004,296 L52.27200000000004,296 L52.56900000000004,296 L52.866000000000035,296 L53.16300000000004,296 L53.460000000000036,296 L53.75700000000004,296 L54.05400000000004,296 L54.35100000000004,296 L54.64800000000004,296 L54.94500000000004,296 L55.24200000000004,296 L55.539000000000044,296 L55.83600000000004,296 L56.13300000000004,296 L56.43000000000004,296 L56.72700000000004,296 L57.02400000000004,296 L57.32100000000004,296 L57.618000000000045,296 L57.91500000000004,296 L58.212000000000046,296 L58.50900000000004,296 L58.80600000000005,296 L59.103000000000044,296 L59.40000000000004,296 L59.697000000000045,296 L59.99400000000004,296 L60.29100000000005,296 L60.588000000000044,296 L60.88500000000005,296 L61.182000000000045,296 L61.47900000000005,296 L61.776000000000046,296 L62.07300000000005,296 L62.37000000000005,296 L62.667000000000044,296 L62.96400000000005,296 L63.261000000000045,296 L63.55800000000005,296 L63.85500000000005,296 L64.15200000000004,296 L64.44900000000005,296 L64.74600000000005,296 L65.04300000000005,296 L65.34000000000005,296 L65.63700000000004,296 L65.93400000000005,296 L66.23100000000005,296 L66.52800000000005,296 L66.82500000000005,296 L67.12200000000006,296 L67.41900000000005,296 L67.71600000000005,296 L68.01300000000005,296 L68.31000000000006,296 L68.60700000000006,296 L68.90400000000005,296 L69.20100000000005,296 L69.49800000000005,296 L69.79500000000006,296 L70.09200000000006,296 L70.38900000000005,296 L70.68600000000005,296 L70.98300000000006,296 L71.28000000000006,296 L71.57700000000006,296 L71.87400000000005,296 L72.17100000000005,296 L72.46800000000006,296 L72.76500000000006,296 L73.06200000000005,296 L73.35900000000005,296 L73.65600000000006,296 L73.95300000000006,296 L74.25000000000004,296 L74.54700000000005,296 L74.84400000000005,296 L75.14100000000005,296 L75.43800000000005,296 L75.73500000000006,296 L76.03200000000005,296 L76.32900000000005,296 L76.62600000000005,296 L76.92300000000006,296 L77.22000000000006,296 L77.51700000000005,296 L77.81400000000005,296 L78.11100000000005,296 L78.40800000000006,296 L78.70500000000006,296 L79.00200000000005,296 L79.29900000000005,296 L79.59600000000006,296 L79.89300000000006,296 L80.19000000000005,296 L80.48700000000005,296 L80.78400000000005,296 L81.08100000000006,296 L81.37800000000006,296 L81.67500000000005,296 L81.97200000000005,296 L82.26900000000006,296 L82.56600000000006,296 L82.86300000000006,296 L83.16000000000005,296 L83.45700000000006,296 L83.75400000000006,296 L84.05100000000006,296 L84.34800000000006,296 L84.64500000000005,296 L84.94200000000006,296 L85.23900000000006,296 L85.53600000000006,296 L85.83300000000006,296 L86.13000000000007,296 L86.42700000000006,296 L86.72400000000006,296 L87.02100000000006,296 L87.31800000000005,296 L87.61500000000007,296 L87.91200000000006,296 L88.20900000000006,296 L88.50600000000006,296 L88.80300000000007,296 L89.10000000000007,296 L89.39700000000006,296 L89.69400000000006,296 L89.99100000000006,296 L90.28800000000007,296 L90.58500000000006,296 L90.88200000000006,296 L91.17900000000006,296 L91.47600000000007,296 L91.77300000000007,296 L92.07000000000006,296 L92.36700000000006,296 L92.66400000000007,296 L92.96100000000007,296 L93.25800000000007,296 L93.55500000000006,296 L93.85200000000006,296 L94.14900000000007,296 L94.44600000000007,296 L94.74300000000007,296 L95.04000000000006,296 L95.33700000000007,296 L95.63400000000007,296 L95.93100000000007,296 L96.22800000000007,296 L96.52500000000006,296 L96.82200000000007,296 L97.11900000000007,296 L97.41600000000007,296 L97.71300000000006,296 L98.01000000000008,296 L98.30700000000007,296 L98.60400000000007,296 L98.90100000000007,296 L99.19800000000008,296 L99.49500000000008,296 L99.79200000000007,296 L100.08900000000007,296 L100.38600000000007,296 L100.68300000000008,296 L100.98000000000008,296 L101.27700000000007,296 L101.57400000000007,296 L101.87100000000008,296 L102.16800000000008,296 L102.46500000000007,296 L102.76200000000007,296 L103.05900000000007,296 L103.35600000000008,296 L103.65300000000008,296 L103.95000000000007,296 L104.24700000000007,296 L104.54400000000008,296 L104.84100000000008,296 L105.13800000000008,296 L105.43500000000007,296 L105.73200000000007,296 L106.02900000000008,296 L106.32600000000008,296 L106.62300000000008,296 L106.92000000000007,296 L107.21700000000008,296 L107.51400000000008,296 L107.81100000000008,296 L108.10800000000008,296 L108.40500000000009,296 L108.70200000000008,296 L108.99900000000008,296 L109.29600000000008,296 L109.59300000000007,296 L109.89000000000009,296 L110.18700000000008,296 L110.48400000000008,296 L110.78100000000008,296 L111.07800000000009,296 L111.37500000000009,296 L111.67200000000008,296 L111.96900000000008,296 L112.26600000000008,296 L112.56300000000009,296 L112.86000000000008,296 L113.15700000000008,296 L113.45400000000008,296 L113.75100000000009,296 L114.04800000000009,296 L114.34500000000008,296 L114.64200000000008,296 L114.93900000000009,296 L115.23600000000009,296 L115.53300000000009,296 L115.83000000000008,296 L116.12700000000008,296 L116.42400000000009,296 L116.72100000000009,296 L117.01800000000009,296 L117.31500000000008,296 L117.6120000000001,296 L117.90900000000009,296 L118.20600000000009,296 L118.50300000000009,296 L118.80000000000008,296 L119.0970000000001,296 L119.39400000000009,296 L119.69100000000009,296 L119.98800000000008,296 L120.2850000000001,296 L120.5820000000001,296 L120.87900000000009,296 L121.17600000000009,296 L121.4730000000001,296 L121.7700000000001,296 L122.06700000000009,296 L122.36400000000009,296 L122.66100000000009,296 L122.9580000000001,296 L123.2550000000001,296 L123.55200000000009,296 L123.84900000000009,296 L124.1460000000001,296 L124.4430000000001,296 L124.7400000000001,296 L125.03700000000009,296 L125.33400000000009,296 L125.6310000000001,296 L125.9280000000001,296 L126.2250000000001,296 L126.52200000000009,296 L126.8190000000001,296 L127.1160000000001,296 L127.4130000000001,296 L127.7100000000001,296 L128.0070000000001,296 L128.3040000000001,296 L128.60100000000008,296 L128.8980000000001,296 L129.1950000000001,296 L129.4920000000001,296 L129.7890000000001,296 L130.0860000000001,296 L130.3830000000001,296 L130.6800000000001,296 L130.9770000000001,296 L131.2740000000001,296 L131.5710000000001,296 L131.8680000000001,296 L132.1650000000001,296 L132.4620000000001,296 L132.7590000000001,296 L133.0560000000001,296 L133.3530000000001,296 L133.6500000000001,296 L133.94700000000012,296 L134.2440000000001,296 L134.5410000000001,296 L134.8380000000001,296 L135.1350000000001,296 L135.4320000000001,296 L135.7290000000001,296 L136.0260000000001,296 L136.3230000000001,296 L136.62000000000012,296 L136.91700000000012,296 L137.2140000000001,296 L137.5110000000001,296 L137.8080000000001,296 L138.1050000000001,296 L138.4020000000001,296 L138.6990000000001,296 L138.9960000000001,296 L139.29300000000012,296 L139.59000000000012,296 L139.8870000000001,296 L140.1840000000001,296 L140.4810000000001,296 L140.7780000000001,296 L141.0750000000001,296 L141.3720000000001,296 L141.6690000000001,296 L141.96600000000012,296 L142.26300000000012,296 L142.56000000000012,296 L142.8570000000001,296 L143.1540000000001,296 L143.4510000000001,296 L143.7480000000001,296 L144.0450000000001,296 L144.3420000000001,296 L144.63900000000012,296 L144.93600000000012,296 L145.23300000000012,296 L145.53000000000011,296 L145.8270000000001,296 L146.1240000000001,296 L146.4210000000001,296 L146.7180000000001,296 L147.0150000000001,296 L147.31200000000013,296 L147.60900000000012,296 L147.90600000000012,296 L148.20300000000012,296 L148.50000000000009,296 L148.7970000000001,296 L149.0940000000001,296 L149.3910000000001,296 L149.6880000000001,296 L149.9850000000001,296 L150.2820000000001,296 L150.5790000000001,296 L150.8760000000001,296 L151.17300000000012,296 L151.4700000000001,296 L151.7670000000001,296 L152.0640000000001,296 L152.3610000000001,296 L152.6580000000001,296 L152.9550000000001,296 L153.2520000000001,296 L153.5490000000001,296 L153.84600000000012,296 L154.14300000000011,296 L154.4400000000001,296 L154.7370000000001,296 L155.0340000000001,296 L155.3310000000001,296 L155.6280000000001,296 L155.9250000000001,296 L156.2220000000001,296 L156.51900000000012,296 L156.81600000000012,296 L157.1130000000001,296 L157.4100000000001,296 L157.7070000000001,296 L158.0040000000001,296 L158.3010000000001,296 L158.5980000000001,296 L158.8950000000001,296 L159.19200000000012,296 L159.48900000000012,296 L159.78600000000012,296 L160.0830000000001,296 L160.3800000000001,296 L160.6770000000001,296 L160.9740000000001,296 L161.2710000000001,296 L161.5680000000001,296 L161.86500000000012,296 L162.16200000000012,296 L162.45900000000012,296 L162.7560000000001,296 L163.0530000000001,296 L163.3500000000001,296 L163.6470000000001,296 L163.9440000000001,296 L164.2410000000001,296 L164.53800000000012,296 L164.83500000000012,296 L165.13200000000012,296 L165.42900000000012,296 L165.7260000000001,296 L166.0230000000001,296 L166.3200000000001,296 L166.6170000000001,296 L166.91400000000013,296 L167.21100000000013,296 L167.50800000000012,296 L167.80500000000012,296 L168.10200000000012,296 L168.39900000000011,296 L168.6960000000001,296 L168.9930000000001,296 L169.2900000000001,296 L169.58700000000013,296 L169.88400000000013,296 L170.18100000000013,296 L170.47800000000012,296 L170.77500000000012,296 L171.07200000000012,296 L171.3690000000001,296 L171.6660000000001,296 L171.9630000000001,296 L172.26000000000013,296 L172.55700000000013,296 L172.85400000000013,296 L173.15100000000012,296 L173.44800000000012,296 L173.74500000000012,296 L174.04200000000012,296 L174.3390000000001,296 L174.6360000000001,296 L174.93300000000013,296 L175.23000000000013,296 L175.52700000000013,296 L175.82400000000013,296 L176.12100000000012,296 L176.41800000000012,296 L176.71500000000012,296 L177.0120000000001,296 L177.3090000000001,296 L177.60600000000014,296 L177.90300000000013,296 L178.20000000000013,296 L178.49700000000013,296 L178.79400000000012,296 L179.09100000000012,296 L179.38800000000012,296 L179.68500000000012,296 L179.9820000000001,296 L180.27900000000014,296 L180.57600000000014,296 L180.87300000000013,296 L181.17000000000013,296 L181.46700000000013,296 L181.76400000000012,296 L182.06100000000012,296 L182.35800000000012,296 L182.65500000000014,296 L182.95200000000014,296 L183.24900000000014,296 L183.54600000000013,296 L183.84300000000013,296 L184.14000000000013,296 L184.43700000000013,296 L184.73400000000012,296 L185.03100000000012,296 L185.32800000000015,296 L185.62500000000014,296 L185.92200000000014,296 L186.21900000000014,296 L186.51600000000013,296 L186.81300000000013,296 L187.11000000000013,296 L187.40700000000012,296 L187.70400000000012,296 L188.00100000000015,296 L188.29800000000014,296 L188.59500000000014,296 L188.89200000000014,296 L189.18900000000014,296 L189.48600000000013,296 L189.78300000000013,296 L190.08000000000013,296 L190.37700000000012,296 L190.67400000000015,296 L190.97100000000015,296 L191.26800000000014,296 L191.56500000000014,296 L191.86200000000014,296 L192.15900000000013,296 L192.45600000000013,296 L192.75300000000013,296 L193.05000000000013,296 L193.34700000000015,296 L193.64400000000015,296 L193.94100000000014,296 L194.23800000000014,296 L194.53500000000014,296 L194.83200000000014,296 L195.12900000000013,296 L195.42600000000013,296 L195.72300000000013,296 L196.02000000000015,296 L196.31700000000015,296 L196.61400000000015,296 L196.91100000000014,296 L197.20800000000014,296 L197.50500000000014,296 L197.80200000000013,296 L198.09900000000013,296 L198.39600000000016,296 L198.69300000000015,296 L198.99000000000015,296 L199.28700000000015,296 L199.58400000000015,296 L199.88100000000014,296 L200.17800000000014,296 L200.47500000000014,296 L200.77200000000013,296 L201.06900000000016,296 L201.36600000000016,296 L201.66300000000015,296 L201.96000000000015,296 L202.25700000000015,296 L202.55400000000014,296 L202.85100000000014,296 L203.14800000000014,296 L203.44500000000014,296 L203.74200000000016,296 L204.03900000000016,296 L204.33600000000015,296 L204.63300000000015,296 L204.93000000000015,296 L205.22700000000015,296 L205.52400000000014,296 L205.82100000000014,296 L206.11800000000014,296 L206.41500000000016,296 L206.71200000000016,296 L207.00900000000016,296 L207.30600000000015,296 L207.60300000000015,296 L207.90000000000015,296 L208.19700000000014,296 L208.49400000000014,296 L208.79100000000014,296 L209.08800000000016,296 L209.38500000000016,296 L209.68200000000016,296 L209.97900000000016,296 L210.27600000000015,296 L210.57300000000015,296 L210.87000000000015,296 L211.16700000000014,296 L211.46400000000014,296 L211.76100000000017,296 L212.05800000000016,296 L212.35500000000016,296 L212.65200000000016,296 L212.94900000000015,296 L213.24600000000015,296 L213.54300000000015,296 L213.84000000000015,296 L214.13700000000017,296 L214.43400000000017,296 L214.73100000000017,296 L215.02800000000016,296 L215.32500000000016,296 L215.62200000000016,296 L215.91900000000015,296 L216.21600000000015,296 L216.51300000000015,296 L216.81000000000017,296 L217.10700000000017,296 L217.40400000000017,296 L217.70100000000016,296 L217.99800000000016,296 L218.29500000000016,296 L218.59200000000016,296 L218.88900000000015,296 L219.18600000000015,296 L219.48300000000017,296 L219.78000000000017,296 L220.07700000000017,296 L220.37400000000017,296 L220.67100000000016,296 L220.96800000000016,296 L221.26500000000016,296 L221.56200000000015,296 L221.85900000000015,296 L222.15600000000018,296 L222.45300000000017,296 L222.75000000000017,296 L223.04700000000017,296 L223.34400000000016,296 L223.64100000000016,296 L223.93800000000016,296 L224.23500000000016,296 L224.53200000000015,296 L224.82900000000018,296 L225.12600000000018,296 L225.42300000000017,296 L225.72000000000017,296 L226.01700000000017,296 L226.31400000000016,296 L226.61100000000016,296 L226.90800000000016,296 L227.20500000000015,296 L227.50200000000018,296 L227.79900000000018,296 L228.09600000000017,296 L228.39300000000017,296 L228.69000000000017,296 L228.98700000000017,296 L229.28400000000016,296 L229.58100000000016,296 L229.87800000000018,296 L230.17500000000018,296 L230.47200000000018,296 L230.76900000000018,296 L231.06600000000017,296 L231.36300000000017,296 L231.66000000000017,296 L231.95700000000016,296 L232.25400000000016,296 L232.5510000000002,296 L232.84800000000018,296 L233.14500000000018,296 L233.44200000000018,296 L233.73900000000017,296 L234.03600000000017,296 L234.33300000000017,296 L234.63000000000017,296 L234.92700000000016,296 L235.2240000000002,296 L235.52100000000019,296 L235.81800000000018,296 L236.11500000000018,296 L236.41200000000018,296 L236.70900000000017,296 L237.00600000000017,296 L237.30300000000017,296 L237.60000000000016,296 L237.8970000000002,296 L238.1940000000002,296 L238.49100000000018,296 L238.78800000000018,296 L239.08500000000018,296 L239.38200000000018,296 L239.67900000000017,296 L239.97600000000017,296 L240.27300000000017,296 L240.5700000000002,296 L240.8670000000002,296 L241.1640000000002,296 L241.46100000000018,296 L241.75800000000018,296 L242.05500000000018,296 L242.35200000000017,296 L242.64900000000017,296 L242.9460000000002,296 L243.2430000000002,296 L243.5400000000002,296 L243.8370000000002,296 L244.13400000000019,296 L244.43100000000018,296 L244.72800000000018,296 L245.02500000000018,296 L245.32200000000017,296 L245.6190000000002,296 L245.9160000000002,296 L246.2130000000002,296 L246.5100000000002,296 L246.8070000000002,296 L247.10400000000018,296 L247.40100000000018,296 L247.69800000000018,296 L247.99500000000018,296 L248.2920000000002,296 L248.5890000000002,296 L248.8860000000002,296 L249.1830000000002,296 L249.4800000000002,296 L249.77700000000019,296 L250.07400000000018,296 L250.37100000000018,296 L250.66800000000018,296 L250.9650000000002,296 L251.2620000000002,296 L251.5590000000002,296 L251.8560000000002,296 L252.1530000000002,296 L252.4500000000002,296 L252.74700000000018,296 L253.04400000000018,296 L253.34100000000018,296 L253.6380000000002,296 L253.9350000000002,296 L254.2320000000002,296 L254.5290000000002,296 L254.8260000000002,296 L255.1230000000002,296 L255.4200000000002,296 L255.71700000000018,296 L256.0140000000002,296 L256.3110000000002,296 L256.6080000000002,296 L256.9050000000002,296 L257.20200000000017,296 L257.4990000000002,296 L257.7960000000002,296 L258.0930000000002,296 L258.3900000000002,296 L258.6870000000002,296 L258.9840000000002,296 L259.2810000000002,296 L259.5780000000002,296 L259.87500000000017,296 L260.1720000000002,296 L260.4690000000002,296 L260.7660000000002,296 L261.0630000000002,296 L261.3600000000002,296 L261.6570000000002,296 L261.9540000000002,296 L262.2510000000002,296 L262.5480000000002,296 L262.8450000000002,296 L263.1420000000002,296 L263.4390000000002,296 L263.7360000000002,296 L264.0330000000002,296 L264.3300000000002,296 L264.6270000000002,296 L264.9240000000002,296 L265.22100000000023,296 L265.5180000000002,296 L265.8150000000002,296 L266.1120000000002,296 L266.4090000000002,296 L266.7060000000002,296 L267.0030000000002,296 L267.3000000000002,296 L267.5970000000002,296 L267.89400000000023,296 L268.1910000000002,296 L268.4880000000002,296 L268.7850000000002,296 L269.0820000000002,296 L269.3790000000002,296 L269.6760000000002,296 L269.9730000000002,296 L270.2700000000002,296 L270.56700000000023,296 L270.8640000000002,296 L271.16100000000023,296 L271.4580000000002,296 L271.7550000000002,296 L272.0520000000002,296 L272.3490000000002,296 L272.6460000000002,296 L272.9430000000002,296 L273.24000000000024,296 L273.5370000000002,296 L273.83400000000023,296 L274.1310000000002,296 L274.4280000000002,296 L274.7250000000002,296 L275.0220000000002,296 L275.3190000000002,296 L275.6160000000002,296 L275.91300000000024,296 L276.2100000000002,296 L276.50700000000023,296 L276.8040000000002,296 L277.1010000000002,296 L277.3980000000002,296 L277.6950000000002,296 L277.9920000000002,296 L278.2890000000002,296 L278.58600000000024,296 L278.8830000000002,296 L279.18000000000023,296 L279.4770000000002,296 L279.7740000000002,296 L280.0710000000002,296 L280.3680000000002,296 L280.6650000000002,296 L280.9620000000002,296 L281.25900000000024,296 L281.5560000000002,296 L281.85300000000024,296 L282.1500000000002,296 L282.44700000000023,296 L282.7440000000002,296 L283.0410000000002,296 L283.3380000000002,296 L283.6350000000002,296 L283.93200000000024,296 L284.2290000000002,296 L284.52600000000024,296 L284.8230000000002,296 L285.12000000000023,296 L285.4170000000002,296 L285.7140000000002,296 L286.0110000000002,296 L286.3080000000002,296 L286.60500000000025,296 L286.9020000000002,296 L287.19900000000024,296 L287.4960000000002,296 L287.79300000000023,296 L288.0900000000002,296 L288.3870000000002,296 L288.6840000000002,296 L288.9810000000002,296 L289.27800000000025,296 L289.5750000000002,296 L289.87200000000024,296 L290.1690000000002,296 L290.46600000000024,296 L290.7630000000002,296 L291.06000000000023,296 L291.3570000000002,296 L291.6540000000002,296 L291.95100000000025,296 L292.2480000000002,296 L292.54500000000024,296 L292.8420000000002,296 L293.13900000000024,296 L293.4360000000002,296 L293.73300000000023,296 L294.0300000000002,296 L294.3270000000002,296 L294.62400000000025,296 L294.9210000000002,296 L295.21800000000025,296 L295.5150000000002,296 L295.81200000000024,296 L296.1090000000002,296 L296.40600000000023,296 L296.70300000000026,296 L297.00000000000017,296"/>
        <path fill="none" stroke="#00f" stroke-width="2" stroke-miterlimit="10" d="M0,296 L0.297,296 L0.594,296 L0.891,296 L1.188,296 L1.485,296 L1.782,296 L2.079,296 L2.376,296 L2.6730000000000005,296 L2.9700000000000006,296 L3.267000000000001,296 L3.564000000000001,296 L3.8610000000000015,296 L4.158000000000001,296 L4.455000000000002,296 L4.7520000000000024,296 L5.049000000000002,296 L5.346000000000003,296 L5.643000000000003,296 L5.940000000000003,296 L6.237000000000004,296 L6.534000000000003,296 L6.831000000000004,296 L7.1280000000000046,296 L7.425000000000004,296 L7.722000000000005,296 L8.019000000000005,296 L8.316000000000006,296 L8.613000000000005,296 L8.910000000000005,296 L9.207000000000006,296 L9.504000000000007,296 L9.801000000000007,296 L10.098000000000006,296 L10.395000000000007,296 L10.692000000000007,296 L10.989000000000008,296 L11.286000000000008,296 L11.583000000000009,296 L11.880000000000008,296 L12.177000000000008,296 L12.474000000000009,296 L12.77100000000001,296 L13.06800000000001,296 L13.365000000000009,296 L13.66200000000001,296 L13.95900000000001,296 L14.25600000000001,296 L14.553000000000011,296 L14.85000000000001,296 L15.147000000000011,296 L15.444000000000011,296 L15.741000000000012,296 L16.03800000000001,296 L16.33500000000001,296 L16.632000000000012,296 L16.929000000000013,296 L17.226000000000013,296 L17.523000000000014,296 L17.820000000000014,296 L18.117000000000015,296 L18.414000000000016,296 L18.711000000000013,296 L19.008000000000013,296 L19.305000000000014,296 L19.602000000000015,296 L19.899000000000015,296 L20.196000000000012,296 L20.493000000000013,296 L20.790000000000013,296 L21.087000000000014,296 L21.384000000000015,296 L21.681000000000015,296 L21.978000000000016,296 L22.275000000000016,296 L22.572000000000017,296 L22.869000000000018,296 L23.166000000000018,296 L23.463000000000015,296 L23.760000000000016,296 L24.057000000000016,296 L24.354000000000017,296 L24.651000000000018,296 L24.948000000000018,296 L25.24500000000002,296 L25.54200000000002,296 L25.83900000000002,296 L26.13600000000002,296 L26.433000000000018,296 L26.730000000000018,296 L27.02700000000002,296 L27.32400000000002,296 L27.62100000000002,296 L27.91800000000002,296 L28.21500000000002,296 L28.51200000000002,296 L28.809000000000022,296 L29.106000000000023,296 L29.403000000000024,296 L29.70000000000002,296 L29.99700000000002,296 L30.294000000000022,296 L30.591000000000022,296 L30.888000000000023,296 L31.185000000000024,296 L31.482000000000024,296 L31.779000000000025,296 L32.07600000000002,296 L32.373000000000026,296 L32.67000000000002,296 L32.96700000000003,296 L33.264000000000024,296 L33.56100000000003,296 L33.858000000000025,296 L34.15500000000003,296 L34.45200000000003,296 L34.749000000000024,296 L35.04600000000003,296 L35.343000000000025,296 L35.64000000000003,296 L35.937000000000026,296 L36.23400000000003,296 L36.53100000000003,296 L36.82800000000003,296 L37.12500000000002,296 L37.422000000000025,296 L37.71900000000002,296 L38.01600000000003,296 L38.313000000000024,296 L38.61000000000003,296 L38.907000000000025,296 L39.20400000000003,296 L39.501000000000026,296 L39.79800000000003,296 L40.09500000000003,296 L40.392000000000024,296 L40.68900000000003,296 L40.986000000000026,296 L41.28300000000003,296 L41.58000000000003,296 L41.87700000000003,296 L42.17400000000003,296 L42.47100000000003,296 L42.76800000000003,296 L43.06500000000003,296 L43.36200000000003,296 L43.65900000000003,296 L43.95600000000003,296 L44.25300000000003,296 L44.55000000000003,296 L44.84700000000003,296 L45.144000000000034,296 L45.44100000000003,296 L45.738000000000035,296 L46.03500000000003,296 L46.332000000000036,296 L46.62900000000003,296 L46.92600000000003,296 L47.223000000000035,296 L47.52000000000003,296 L47.817000000000036,296 L48.11400000000003,296 L48.41100000000004,296 L48.708000000000034,296 L49.00500000000004,296 L49.302000000000035,296 L49.59900000000004,296 L49.896000000000036,296 L50.19300000000003,296 L50.49000000000004,296 L50.787000000000035,296 L51.08400000000004,296 L51.381000000000036,296 L51.67800000000004,296 L51.97500000000004,296 L52.27200000000004,296 L52.56900000000004,296 L52.866000000000035,296 L53.16300000000004,296 L53.460000000000036,296 L53.75700000000004,296 L54.05400000000004,296 L54.35100000000004,296 L54.64800000000004,296 L54.94500000000004,296 L55.24200000000004,296 L55.539000000000044,296 L55.83600000000004,296 L56.13300000000004,296 L56.43000000000004,296 L56.72700000000004,296 L57.02400000000004,296 L57.32100000000004,296 L57.618000000000045,296 L57.91500000000004,296 L58.212000000000046,296 L58.50900000000004,296 L58.80600000000005,296 L59.103000000000044,296 L59.40000000000004,296 L59.697000000000045,296 L59.99400000000004,296 L60.29100000000005,296 L60.588000000000044,296 L60.88500000000005,296 L61.182000000000045,296 L61.47900000000005,296 L61.776000000000046,296 L62.07300000000005,296 L62.37000000000005,296 L62.667000000000044,296 L62.96400000000005,296 L63.261000000000045,296 L63.55800000000005,296 L63.85500000000005,296 L64.15200000000004,296 L64.44900000000005,296 L64.74600000000005,296 L65.04300000000005,296 L65.34000000000005,296 L65.63700000000004,296 L65.93400000000005,296 L66.23100000000005,296 L66.52800000000005,296 L66.82500000000005,296 L67.12200000000006,296 L67.41900000000005,296 L67.71600000000005,296 L68.01300000000005,296 L68.31000000000006,296 L68.60700000000006,296 L68.90400000000005,296 L69.20100000000005,296 L69.49800000000005,296 L69.79500000000006,296 L70.09200000000006,296 L70.38900000000005,296 L70.68600000000005,296 L70.98300000000006,296 L71.28000000000006,296 L71.57700000000006,296 L71.87400000000005,296 L72.17100000000005,296 L72.46800000000006,296 L72.76500000000006,296 L73.06200000000005,296 L73.35900000000005,296 L73.65600000000006,296 L73.95300000000006,296 L74.25000000000004,296 L74.54700000000005,296 L74.84400000000005,296 L75.14100000000005,296 L75.43800000000005,296 L75.73500000000006,296 L76.03200000000005,296 L76.32900000000005,296 L76.62600000000005,296 L76.92300000000006,296 L77.22000000000006,296 L77.51700000000005,296 L77.81400000000005,296 L78.11100000000005,296 L78.40800000000006,296 L78.70500000000006,296 L79.00200000000005,296 L79.29900000000005,296 L79.59600000000006,296 L79.89300000000006,296 L80.19000000000005,296 L80.48700000000005,296 L80.78400000000005,296 L81.08100000000006,296 L81.37800000000006,296 L81.67500000000005,296 L81.97200000000005,296 L82.26900000000006,296 L82.56600000000006,296 L82.86300000000006,296 L83.16000000000005,296 L83.45700000000006,296 L83.75400000000006,296 L84.05100000000006,296 L84.34800000000006,296 L84.64500000000005,296 L84.94200000000006,296 L85.23900000000006,296 L85.53600000000006,296 L85.83300000000006,296 L86.13000000000007,296 L86.42700000000006,296 L86.72400000000006,296 L87.02100000000006,296 L87.31800000000005,296 L87.61500000000007,296 L87.91200000000006,296 L88.20900000000006,296 L88.50600000000006,296 L88.80300000000007,296 L89.10000000000007,296 L89.39700000000006,296 L89.69400000000006,296 L89.99100000000006,296 L90.28800000000007,296 L90.58500000000006,296 L90.88200000000006,296 L91.17900000000006,296 L91.47600000000007,296 L91.77300000000007,296 L92.07000000000006,296 L92.36700000000006,296 L92.66400000000007,296 L92.96100000000007,296 L93.25800000000007,296 L93.55500000000006,296 L93.85200000000006,296 L94.14900000000007,296 L94.44600000000007,296 L94.74300000000007,296 L95.04000000000006,296 L95.33700000000007,296 L95.63400000000007,296 L95.93100000000007,296 L96.22800000000007,296 L96.52500000000006,296 L96.82200000000007,296 L97.11900000000007,296 L97.41600000000007,296 L97.71300000000006,296 L98.01000000000008,296 L98.30700000000007,296 L98.60400000000007,296 L98.90100000000007,296 L99.19800000000008,296 L99.49500000000008,296 L99.79200000000007,296 L100.08900000000007,296 L100.38600000000007,296 L100.68300000000008,296 L100.98000000000008,296 L101.27700000000007,296 L101.57400000000007,296 L101.87100000000008,296 L102.16800000000008,296 L102.46500000000007,296 L102.76200000000007,296 L103.05900000000007,296 L103.35600000000008,296 L103.65300000000008,296 L103.95000000000007,296 L104.24700000000007,296 L104.54400000000008,296 L104.84100000000008,296 L105.13800000000008,296 L105.43500000000007,296 L105.73200000000007,296 L106.02900000000008,296 L106.32600000000008,296 L106.62300000000008,296 L106.92000000000007,296 L107.21700000000008,296 L107.51400000000008,296 L107.81100000000008,296 L108.10800000000008,296 L108.40500000000009,296 L108.70200000000008,296 L108.99900000000008,296 L109.29600000000008,296 L109.59300000000007,296 L109.89000000000009,296 L110.18700000000008,296 L110.48400000000008,296 L110.78100000000008,296 L111.07800000000009,296 L111.37500000000009,296 L111.67200000000008,296 L111.96900000000008,296 L112.26600000000008,296 L112.56300000000009,296 L112.86000000000008,296 L113.15700000000008,296 L113.45400000000008,296 L113.75100000000009,296 L114.04800000000009,296 L114.34500000000008,296 L114.64200000000008,296 L114.93900000000009,296 L115.23600000000009,296 L115.53300000000009,296 L115.83000000000008,296 L116.12700000000008,296 L116.42400000000009,296 L116.72100000000009,296 L117.01800000000009,296 L117.31500000000008,296 L117.6120000000001,296 L117.90900000000009,296 L118.20600000000009,296 L118.50300000000009,296 L118.80000000000008,296 L119.0970000000001,296 L119.39400000000009,296 L119.69100000000009,296 L119.98800000000008,296 L120.2850000000001,296 L120.5820000000001,296 L120.87900000000009,296 L121.17600000000009,296 L121.4730000000001,296 L121.7700000000001,296 L122.06700000000009,296 L122.36400000000009,296 L122.66100000000009,296 L122.9580000000001,296 L123.2550000000001,296 L123.55200000000009,296 L123.84900000000009,296 L124.1460000000001,296 L124.4430000000001,296 L124.7400000000001,296 L125.03700000000009,296 L125.33400000000009,296 L125.6310000000001,296 L125.9280000000001,296 L126.2250000000001,296 L126.52200000000009,296 L126.8190000000001,296 L127.1160000000001,296 L127.4130000000001,296 L127.7100000000001,296 L128.0070000000001,296 L128.3040000000001,296 L128.60100000000008,296 L128.8980000000001,296 L129.1950000000001,296 L129.4920000000001,296 L129.7890000000001,296 L130.0860000000001,296 L130.3830000000001,296 L130.6800000000001,296 L130.9770000000001,296 L131.2740000000001,296 L131.5710000000001,296 L131.8680000000001,296 L132.1650000000001,296 L132.4620000000001,296 L132.7590000000001,296 L133.0560000000001,296 L133.3530000000001,296 L133.6500000000001,296 L133.94700000000012,296 L134.2440000000001,296 L134.5410000000001,296 L134.8380000000001,296 L135.1350000000001,296 L135.4320000000001,296 L135.7290000000001,296 L136.0260000000001,296 L136.3230000000001,296 L136.62000000000012,296 L136.91700000000012,296 L137.2140000000001,296 L137.5110000000001,296 L137.8080000000001,296 L138.1050000000001,296 L138.4020000000001,296 L138.6990000000001,296 L138.9960000000001,296 L139.29300000000012,296 L139.59000000000012,296 L139.8870000000001,296 L140.1840000000001,296 L140.4810000000001,296 L140.7780000000001,296 L141.0750000000001,296 L141.3720000000001,296 L141.6690000000001,296 L141.96600000000012,296 L142.26300000000012,296 L142.56000000000012,296 L142.8570000000001,296 L143.1540000000001,296 L143.4510000000001,296 L143.7480000000001,296 L144.0450000000001,296 L144.3420000000001,296 L144.63900000000012,296 L144.93600000000012,296 L145.23300000000012,296 L145.53000000000011,296 L145.8270000000001,296 L146.1240000000001,296 L146.4210000000001,296 L146.7180000000001,296 L147.0150000000001,296 L147.31200000000013,296 L147.60900000000012,296 L147.90600000000012,296 L148.20300000000012,296 L148.50000000000009,296 L148.7970000000001,296 L149.0940000000001,296 L149.3910000000001,296 L149.6880000000001,296 L149.9850000000001,296 L150.2820000000001,296 L150.5790000000001,296 L150.8760000000001,296 L151.17300000000012,296 L151.4700000000001,296 L151.7670000000001,296 L152.0640000000001,296 L152.3610000000001,296 L152.6580000000001,296 L152.9550000000001,296 L153.2520000000001,296 L153.5490000000001,296 L153.84600000000012,296 L154.14300000000011,296 L154.4400000000001,296 L154.7370000000001,296 L155.0340000000001,296 L155.3310000000001,296 L155.6280000000001,296 L155.9250000000001,296 L156.2220000000001,296 L156.51900000000012,296 L156.81600000000012,296 L157.1130000000001,296 L157.4100000000001,296 L157.7070000000001,296 L158.0040000000001,296 L158.3010000000001,296 L158.5980000000001,296 L158.8950000000001,296 L159.19200000000012,296 L159.48900000000012,296 L159.78600000000012,296 L160.0830000000001,296 L160.3800000000001,296 L160.6770000000001,296 L160.9740000000001,296 L161.2710000000001,296 L161.5680000000001,296 L161.86500000000012,296 L162.16200000000012,296 L162.45900000000012,296 L162.7560000000001,296 L163.0530000000001,296 L163.3500000000001,296 L163.6470000000001,296 L163.9440000000001,296 L164.2410000000001,296 L164.53800000000012,296 L164.83500000000012,296 L165.13200000000012,296 L165.42900000000012,296 L165.7260000000001,296 L166.0230000000001,296 L166.3200000000001,296 L166.6170000000001,296 L166.91400000000013,296 L167.21100000000013,296 L167.50800000000012,296 L167.80500000000012,296 L168.10200000000012,296 L168.39900000000011,296 L168.6960000000001,296 L168.9930000000001,296 L169.2900000000001,296 L169.58700000000013,296 L169.88400000000013,296 L170.18100000000013,296 L170.47800000000012,296 L170.77500000000012,296 L171.07200000000012,296 L171.3690000000001,296 L171.6660000000001,296 L171.9630000000001,296 L172.26000000000013,296 L172.55700000000013,296 L172.85400000000013,296 L173.15100000000012,296 L173.44800000000012,296 L173.74500000000012,296 L174.04200000000012,296 L174.3390000000001,296 L174.6360000000001,296 L174.93300000000013,296 L175.23000000000013,296 L175.52700000000013,296 L175.82400000000013,296 L176.12100000000012,296 L176.41800000000012,296 L176.71500000000012,296 L177.0120000000001,296 L177.3090000000001,296 L177.60600000000014,296 L177.90300000000013,296 L178.20000000000013,296 L178.49700000000013,296 L178.79400000000012,296 L179.09100000000012,296 L179.38800000000012,296 L179.68500000000012,296 L179.9820000000001,296 L180.27900000000014,296 L180.57600000000014,296 L180.87300000000013,296 L181.17000000000013,296 L181.46700000000013,296 L181.76400000000012,296 L182.06100000000012,296 L182.35800000000012,296 L182.65500000000014,296 L182.95200000000014,296 L183.24900000000014,296 L183.54600000000013,296 L183.84300000000013,296 L184.14000000000013,296 L184.43700000000013,296 L184.73400000000012,296 L185.03100000000012,296 L185.32800000000015,296 L185.62500000000014,296 L185.92200000000014,296 L186.21900000000014,296 L186.51600000000013,296 L186.81300000000013,296 L187.11000000000013,296 L187.40700000000012,296 L187.70400000000012,296 L188.00100000000015,296 L188.29800000000014,296 L188.59500000000014,296 L188.89200000000014,296 L189.18900000000014,296 L189.48600000000013,296 L189.78300000000013,296 L190.08000000000013,296 L190.37700000000012,296 L190.67400000000015,296 L190.97100000000015,296 L191.26800000000014,296 L191.56500000000014,296 L191.86200000000014,296 L192.15900000000013,296 L192.45600000000013,296 L192.75300000000013,296 L193.05000000000013,296 L193.34700000000015,296 L193.64400000000015,296 L193.94100000000014,296 L194.23800000000014,296 L194.53500000000014,296 L194.83200000000014,296 L195.12900000000013,296 L195.42600000000013,296 L195.72300000000013,296 L196.02000000000015,296 L196.31700000000015,296 L196.61400000000015,296 L196.91100000000014,296 L197.20800000000014,296 L197.50500000000014,296 L197.80200000000013,296 L198.09900000000013,296 L198.39600000000016,296 L198.69300000000015,296 L198.99000000000015,296 L199.28700000000015,296 L199.58400000000015,296 L199.88100000000014,296 L200.17800000000014,296 L200.47500000000014,296 L200.77200000000013,296 L201.06900000000016,296 L201.36600000000016,296 L201.66300000000015,296 L201.96000000000015,296 L202.25700000000015,296 L202.55400000000014,296 L202.85100000000014,296 L203.14800000000014,296 L203.44500000000014,296 L203.74200000000016,296 L204.03900000000016,296 L204.33600000000015,296 L204.63300000000015,296 L204.93000000000015,296 L205.22700000000015,296 L205.52400000000014,296 L205.82100000000014,296 L206.11800000000014,296 L206.41500000000016,296 L206.71200000000016,296 L207.00900000000016,296 L207.30600000000015,296 L207.60300000000015,296 L207.90000000000015,296 L208.19700000000014,296 L208.49400000000014,296 L208.79100000000014,296 L209.08800000000016,296 L209.38500000000016,296 L209.68200000000016,296 L209.97900000000016,296 L210.27600000000015,296 L210.57300000000015,296 L210.87000000000015,296 L211.16700000000014,296 L211.46400000000014,296 L211.76100000000017,296 L212.05800000000016,296 L212.35500000000016,296 L212.65200000000016,296 L212.94900000000015,296 L213.24600000000015,296 L213.54300000000015,296 L213.84000000000015,296 L214.13700000000017,296 L214.43400000000017,296 L214.73100000000017,296 L215.02800000000016,296 L215.32500000000016,296 L215.62200000000016,296 L215.91900000000015,296 L216.21600000000015,296 L216.51300000000015,296 L216.81000000000017,296 L217.10700000000017,296 L217.40400000000017,296 L217.70100000000016,296 L217.99800000000016,296 L218.29500000000016,296 L218.59200000000016,296 L218.88900000000015,296 L219.18600000000015,296 L219.48300000000017,296 L219.78000000000017,296 L220.07700000000017,296 L220.37400000000017,296 L220.67100000000016,296 L220.96800000000016,296 L221.26500000000016,296 L221.56200000000015,296 L221.85900000000015,296 L222.15600000000018,296 L222.45300000000017,296 L222.75000000000017,296 L223.04700000000017,296 L223.34400000000016,296 L223.64100000000016,296 L223.93800000000016,296 L224.23500000000016,296 L224.53200000000015,296 L224.82900000000018,296 L225.12600000000018,296 L225.42300000000017,296 L225.72000000000017,296 L226.01700000000017,296 L226.31400000000016,296 L226.61100000000016,296 L226.90800000000016,296 L227.20500000000015,296 L227.50200000000018,296 L227.79900000000018,296 L228.09600000000017,296 L228.39300000000017,296 L228.69000000000017,296 L228.98700000000017,296 L229.28400000000016,296 L229.58100000000016,296 L229.87800000000018,296 L230.17500000000018,296 L230.47200000000018,296 L230.76900000000018,296 L231.06600000000017,296 L231.36300000000017,296 L231.66000000000017,296 L231.95700000000016,296 L232.25400000000016,296 L232.5510000000002,296 L232.84800000000018,296 L233.14500000000018,296 L233.44200000000018,296 L233.73900000000017,296 L234.03600000000017,296 L234.33300000000017,296 L234.63000000000017,296 L234.92700000000016,296 L235.2240000000002,296 L235.52100000000019,296 L235.81800000000018,296 L236.11500000000018,296 L236.41200000000018,296 L236.70900000000017,296 L237.00600000000017,296 L237.30300000000017,296 L237.60000000000016,296 L237.8970000000002,296 L238.1940000000002,296 L238.49100000000018,296 L238.78800000000018,296 L239.08500000000018,296 L239.38200000000018,296 L239.67900000000017,296 L239.97600000000017,296 L240.27300000000017,296 L240.5700000000002,296 L240.8670000000002,296 L241.1640000000002,296 L241.46100000000018,296 L241.75800000000018,296 L242.05500000000018,296 L242.35200000000017,296 L242.64900000000017,296 L242.9460000000002,296 L243.2430000000002,296 L243.5400000000002,296 L243.8370000000002,296 L244.13400000000019,296 L244.43100000000018,296 L244.72800000000018,296 L245.02500000000018,296 L245.32200000000017,296 L245.6190000000002,296 L245.9160000000002,296 L246.2130000000002,296 L246.5100000000002,296 L246.8070000000002,296 L247.10400000000018,296 L247.40100000000018,296 L247.69800000000018,296 L247.99500000000018,296 L248.2920000000002,296 L248.5890000000002,296 L248.8860000000002,296 L249.1830000000002,296 L249.4800000000002,296 L249.77700000000019,296 L250.07400000000018,296 L250.37100000000018,296 L250.66800000000018,296 L250.9650000000002,296 L251.2620000000002,296 L251.5590000000002,296 L251.8560000000002,296 L252.1530000000002,296 L252.4500000000002,296 L252.74700000000018,296 L253.04400000000018,296 L253.34100000000018,296 L253.6380000000002,296 L253.9350000000002,296 L254.2320000000002,296 L254.5290000000002,296 L254.8260000000002,296 L255.1230000000002,296 L255.4200000000002,296 L255.71700000000018,296 L256.0140000000002,296 L256.3110000000002,296 L256.6080000000002,296 L256.9050000000002,296 L257.20200000000017,296 L257.4990000000002,296 L257.7960000000002,296 L258.0930000000002,296 L258.3900000000002,296 L258.6870000000002,296 L258.9840000000002,296 L259.2810000000002,296 L259.5780000000002,296 L259.87500000000017,296 L260.1720000000002,296 L260.4690000000002,296 L260.7660000000002,296 L261.0630000000002,296 L261.3600000000002,296 L261.6570000000002,296 L261.9540000000002,296 L262.2510000000002,296 L262.5480000000002,296 L262.8450000000002,296 L263.1420000000002,296 L263.4390000000002,296 L263.7360000000002,296 L264.0330000000002,296 L264.3300000000002,296 L264.6270000000002,296 L264.9240000000002,296 L265.22100000000023,296 L265.5180000000002,296 L265.8150000000002,296 L266.1120000000002,296 L266.4090000000002,296 L266.7060000000002,296 L267.0030000000002,296 L267.3000000000002,296 L267.5970000000002,296 L267.89400000000023,296 L268.1910000000002,296 L268.4880000000002,296 L268.7850000000002,296 L269.0820000000002,296 L269.3790000000002,296 L269.6760000000002,296 L269.9730000000002,296 L270.2700000000002,296 L270.56700000000023,296 L270.8640000000002,296 L271.16100000000023,296 L271.4580000000002,296 L271.7550000000002,296 L272.0520000000002,296 L272.3490000000002,296 L272.6460000000002,296 L272.9430000000002,296 L273.24000000000024,296 L273.5370000000002,296 L273.83400000000023,296 L274.1310000000002,296 L274.4280000000002,296 L274.7250000000002,296 L275.0220000000002,296 L275.3190000000002,296 L275.6160000000002,296 L275.91300000000024,296 L276.2100000000002,296 L276.50700000000023,296 L276.8040000000002,296 L277.1010000000002,296 L277.3980000000002,296 L277.6950000000002,296 L277.9920000000002,296 L278.2890000000002,296 L278.58600000000024,296 L278.8830000000002,296 L279.18000000000023,296 L279.4770000000002,296 L279.7740000000002,296 L280.0710000000002,296 L280.3680000000002,296 L280.6650000000002,296 L280.9620000000002,296 L281.25900000000024,296 L281.5560000000002,296 L281.85300000000024,296 L282.1500000000002,296 L282.44700000000023,296 L282.7440000000002,296 L283.0410000000002,296 L283.3380000000002,296 L283.6350000000002,296 L283.93200000000024,296 L284.2290000000002,296 L284.52600000000024,296 L284.8230000000002,296 L285.12000000000023,296 L285.4170000000002,296 L285.7140000000002,296 L286.0110000000002,296 L286.3080000000002,296 L286.60500000000025,296 L286.9020000000002,296 L287.19900000000024,296 L287.4960000000002,296 L287.79300000000023,296 L288.0900000000002,296 L288.3870000000002,296 L288.6840000000002,296 L288.9810000000002,296 L289.27800000000025,296 L289.5750000000002,296 L289.87200000000024,296 L290.1690000000002,296 L290.46600000000024,296 L290.7630000000002,296 L291.06000000000023,296 L291.3570000000002,296 L291.6540000000002,296 L291.95100000000025,296 L292.2480000000002,296 L292.54500000000024,296 L292.8420000000002,296 L293.13900000000024,296 L293.4360000000002,296 L293.73300000000023,296 L294.0300000000002,296 L294.3270000000002,296 L294.62400000000025,296 L294.9210000000002,296 L295.21800000000025,296 L295.5150000000002,296 L295.81200000000024,296 L296.1090000000002,296 L296.40600000000023,296 L296.70300000000026,296 L297.00000000000017,296"/>
    </g>
</svg>

